<svg xmlns="http://www.w3.org/2000/svg" fill="none" viewBox="0 0 154 32">
	<path fill="#000"
		d="M16.008 17.089c-.254.919-.816 1.668-1.669 2.24a4.967 4.967 0 0 1-2.84.862c-1.133 0-2.174-.375-3.12-1.115-.947-.74-1.65-1.865-2.1-3.374a14.507 14.507 0 0 1-.59-4.19c0-1.761.281-3.308.834-4.657.544-1.312 1.256-2.118 2.146-2.428 1.678-.618 2.905-.046 3.224.103.366.17 1.284.778 1.293 1.95 0 .665-.346 1.115-.712 1.387a1.816 1.816 0 0 1-1.096.337c-.347-.018-.61-.197-.797-.525-.131.3-.178.6-.131.91.037.309.15.58.337.824.235.31.544.553.938.713.393.159.843.206 1.33.13.488-.074 3.177-.43 3.177-3.73 0-.702-.44-1.996-1.602-2.605-.994-.525-4.902-1.865-9.644 1.444v.018c-1.5.956-2.7 2.23-3.59 3.852C.47 10.922 0 12.797 0 14.85c0 1.875.403 3.59 1.2 5.127.796 1.546 1.902 2.755 3.308 3.645 1.406.89 2.99 1.331 4.742 1.331 1.584 0 2.915-.318 4.002-.965 1.087-.647 1.893-1.443 2.418-2.4.525-.955.787-1.892.787-2.811 0-.703-.159-1.265-.468-1.696l.018.009Zm98.537 4.301c-.637.994-1.227 1.575-2.305 2.316-1.078.74-2.418 1.115-4.011 1.115-1.594 0-3.121-.3-4.386-.89-1.275-.6-2.269-1.462-2.981-2.596-.712-1.134-1.068-2.475-1.068-4.012 0-1.537.375-2.755 1.124-3.88.75-1.124 1.762-1.996 3.046-2.605 1.284-.61 2.7-.919 4.255-.919.994 0 1.95.188 2.878.572.918.384 1.593.919 1.996 1.63.384.666.581 1.313.581 1.931 0 .863.178 4.293-4.358 4.602-.919.066-1.884.028-3.084-.759 2.85-.047 2.765-1.959 2.765-2.493 0-.628-.122-1.312-.375-2.052s-.571-1.369-.965-1.894c-.394-.515-.787-.777-1.2-.777a.971.971 0 0 0-.29.056c-.328.094-.6.468-.806 1.115-.206.647-.309 1.406-.309 2.287 0 1.312.215 2.512.637 3.608.487 1.228 1.153 2.156 1.996 2.784.844.628 1.762.937 2.755.937.994 0 1.865-.281 2.728-.853.862-.562 1.555-1.359 2.052-2.371.15.543-.14 2.268-.712 3.158l.037-.01Zm-53.851 3.028h.73v.29h-8.34v-.29h.73c.385 0 .581-.29.581-.881V12.684c0-.412-.121-.703-.374-.88-.253-.179-.563-.254-.938-.235v-.234c1.013 0 6.083-1.088 6.917-1.275l.112.15v13.364c0 .544.197.835.581.853v-.009ZM55.65 8.785a2.56 2.56 0 0 1-.759-1.865c0-.73.253-1.34.76-1.865a2.479 2.479 0 0 1 1.836-.778c.722 0 1.34.263 1.856.778a2.54 2.54 0 0 1 .778 1.865c0 .731-.263 1.34-.778 1.865a2.535 2.535 0 0 1-1.856.778 2.48 2.48 0 0 1-1.837-.778ZM41.303 24.418h.73v.29h-8.34v-.29h.73c.385 0 .582-.29.582-.881V4.624c0-.759-.328-1.143-.994-1.143l-.318.028v-.234c3.383-.703 4.404-.825 6.916-1.275l.113.15v21.425c0 .543.197.834.58.852v-.009Z" />
	<path fill="#000"
		d="M28.875 24.709c-.684-.02-1.209-.16-1.593-.422-.375-.263-.6-.778-.656-1.537-.234.43-.75.862-1.546 1.302a6.007 6.007 0 0 1-2.484.75c-1.556.094-2.802-.234-3.73-.993-.937-.76-1.396-2.259-1.396-4.48v-6.636c0-.412-.132-.702-.375-.88-.244-.179-.563-.254-.938-.235v-.234c1.013 0 5.277-.937 6.889-1.275l.112.15v10.113c0 1.171.15 2.015.44 2.52.291.507.657.76 1.107.76.45 0 .843-.178 1.256-.525.412-.347.628-.693.674-1.021v-9.363c0-.412-.121-.703-.375-.881-.253-.178-.562-.253-.937-.234v-.235c1.012 0 5.408-.937 6.889-1.274l.122.15v13.364c0 .253.046.46.14.619.094.16.244.234.44.234h.76v.29h-4.78l-.019-.027Zm61.49-.291c-.384 0-.58-.281-.58-.853v-6.767c0-2.717-.77-4.545-2.306-5.491-1.265-.778-2.85-1.238-4.611-1.388a9.246 9.246 0 0 0-1.003-.056h-.31c-1.78.019-3.139.46-3.917.872-1.143.609-1.771 1.593-1.734 2.643.085 2.277 2.287 2.352 2.765 2.39 1.368.084 2.137-.619 2.362-.928.178-.244.29-.516.328-.816.037-.3 0-.6-.131-.89-.178.328-.44.497-.778.515a1.765 1.765 0 0 1-1.078-.337c-.365-.272-.76-.712-.703-1.368.085-.966.984-1.275 1.368-1.387.44-.122 1.05-.216 1.875-.178.843.056 1.546.356 1.837.777.31.441.29 1.425.29 2.456 0 .469-.14.9-.515 1.19-2.755 2.08-5.83 1.378-8.529 3.674-.543.46-.993 1.275-1.03 2.474-.029.9.13 1.669.627 2.297.497.627 1.172 1.115 2.025 1.452a7.508 7.508 0 0 0 2.708.497c1.087 0 2.071-.206 2.943-.628.872-.422 1.471-1.031 1.78-1.828.057.76.272 1.275.638 1.537.365.263.9.403 1.603.422h4.78v-.29h-.732l.028.009ZM84.04 21.25c-.018.74-.206 1.284-.553 1.622a1.712 1.712 0 0 1-1.255.515 2.59 2.59 0 0 1-.872-.15 2.25 2.25 0 0 1-.731-.384 2.368 2.368 0 0 1-.675-.89 2.863 2.863 0 0 1-.234-1.163c0-3.195 3.083-3.73 4.32-5.37v5.82Zm-10.6-11.19v.29h.618c.272.02.412.179.412.47 0 .177-.018.308-.056.412L71.21 23.48l-3.27-12.306a1.429 1.429 0 0 1-.029-.318c0-.31.14-.478.412-.497h.638v-.29h-8.22v.29h.731c.385 0 .656.29.788.88.328 1.313.806 3.122 1.415 5.437a832.498 832.498 0 0 0 1.5 5.614c.252.956.608 2.07.73 2.436h6.823v-.29h-.44a.707.707 0 0 1-.422-.216c-.122-.131-.187-.328-.187-.6 0-.075.018-.234.056-.468l3.149-11.959c.16-.525.422-.797.787-.825h.694v-.29h-2.906l-.019-.019Zm-20.844.29v-.29h-3.974V4.343l-.178-.15c-2.605 1.921-6.12 4.367-7.32 4.94v.318h.638c.272 0 .534.075.768.234.244.16.366.45.366.881v9.457c0 4.554 4.133 4.657 4.133 4.657.169.02.403.02.74.02h2.222c1.424-.02 2.586-1.22 2.586-2.672h-.393c0 1.181-1.05 2.24-2.203 2.25h-1.378V10.34h3.974l.02.01Zm47.994 0v-.29h-3.973V4.343l-.178-.15c-2.606 1.921-6.12 4.367-7.32 4.94v.318h.637c.272 0 .534.075.769.234.243.16.365.45.365.881v9.457c0 4.554 4.133 4.657 4.133 4.657.17.02.403.02.74.02h2.223c1.425-.02 2.587-1.22 2.587-2.672h-.394c0 1.181-1.05 2.24-2.202 2.25h-1.378V10.34h3.974l.018.01Z" />
	<path fill="#A0A39B"
		d="M130.356 8.251a9.684 9.684 0 0 0-2.577-.375c-1.5 0-2.821.29-3.983.863-1.162.58-2.053 1.358-2.671 2.342a5.967 5.967 0 0 0-.938 3.271c0 1.19.319 2.268.956 3.215.638.947 2.39 2.352 3.843 2.84 1.05.346 2.155.459 3.261.459 1.519 0 2.878-.253 4.077-.76 1.2-.505 2.137-1.246 2.831-2.22.684-.975 1.031-2.156 1.031-3.534 0-1.255-.45-2.39-1.341-3.411-.89-1.022-2.586-2.174-4.47-2.7l-.019.01Zm-.019 10.947c-.337.768-.806 1.162-1.396 1.162-.694 0-1.331-.544-1.903-1.64-.571-1.087-.984-2.456-1.227-4.105a17.298 17.298 0 0 1-.15-2.1c0-1.237.159-2.23.478-2.98.318-.75.778-1.125 1.368-1.125.74 0 1.396.544 1.968 1.622.572 1.078.984 2.455 1.228 4.124.103.787.15 1.462.15 2.033 0 1.237-.169 2.24-.506 3.009h-.01Zm4.162-12.558c0 1.377-1.5 1.808-2.297 1.995 1.331.066 2.325 0 3.112-.309a3.264 3.264 0 0 0 2.118-3.196c-.103-2.427-2.334-2.586-2.849-2.605-3.158-.075-3.196 2.4-2.849 2.858.384-.656 2.765-.824 2.765 1.247v.01Zm18.06 6.878c-.769-1.171-1.809-2.108-3.112-2.802a8.853 8.853 0 0 0-3.974-1.03v-.01c-.018 0-.028 0-.047.01-.056 0-.112-.01-.168-.01-1.65 0-3.121.337-4.405 1.021-1.284.684-2.278 1.612-2.99 2.784a7.318 7.318 0 0 0-1.068 3.87c0 1.406.337 2.747 1.003 3.909.674 1.162 1.649 2.09 2.933 2.764 1.284.684 2.793 1.022 4.517 1.022 1.725 0 3.206-.347 4.49-1.022 1.284-.684 2.268-1.612 2.942-2.783.685-1.172 1.022-2.474 1.022-3.899a6.78 6.78 0 0 0-1.153-3.842l.01.018Zm-5.296 9.597c-.29.872-.693 1.303-1.199 1.303-.413 0-.816-.3-1.228-.89-.412-.6-.787-1.415-1.125-2.447a17.845 17.845 0 0 1-.74-3.43 24.067 24.067 0 0 1-.15-1.752c.665.168 1.256.075 1.453.047.431-.066.787-.207 1.077-.44a1.88 1.88 0 0 0 .61-.835c.093-.253.112-.515.075-.778a1.54 1.54 0 0 0-.338-.73c-.075.327-.253.533-.534.636a1.594 1.594 0 0 1-1.003 0c-.375-.13-.787-.421-.946-.984-.282-.993.318-1.743.59-1.958.216-.17.59-.347.993-.46.291.132.582.394.872.816.422.609.797 1.424 1.125 2.465.328 1.04.571 2.174.731 3.43.112.9.178 1.771.178 2.605 0 1.406-.15 2.55-.441 3.412v-.01Zm-12.333 3.309c-.16-2.006-2.072-3.515-5.23-3.515h-3.861c-1.237 0-2.578-.44-1.659-2.39-2.146.834-3.037 1.912-3.037 3.524s1.603 2.671 3.234 2.671H130c2.971 0 3.505.703 3.505 1.575 0 .871-.506 1.18-2.399 1.18h-5.886c-1.068 0-2.418-.871-1.556-2.436-2.015.665-2.849 1.537-2.849 2.82 0 1.285 1.5 2.147 3.028 2.147h5.042c3.092 0 4.714-1.19 5.342-2.24.628-1.05.778-2.39.703-3.327v-.01Z" />
</svg>